<?xml version="1.0" standalone="no"?>
<!DOCTYPE svg PUBLIC "-//W3C//DTD SVG 20010904//EN"
 "http://www.w3.org/TR/2001/REC-SVG-20010904/DTD/svg10.dtd">
<svg version="1.0" xmlns="http://www.w3.org/2000/svg"
 width="500.000000pt" height="500.000000pt" viewBox="0 0 500.000000 500.000000"
 preserveAspectRatio="xMidYMid meet">
<metadata>
Created by potrace 1.14, written by Peter Selinger 2001-2017
</metadata>
<g transform="translate(0.000000,500.000000) scale(0.100000,-0.100000)"
fill="#000000" stroke="none">
<path d="M0 2500 l0 -2500 2500 0 2500 0 0 2500 0 2500 -2500 0 -2500 0 0
-2500z m2734 1985 c437 -51 831 -239 1154 -550 178 -170 297 -335 408 -560
341 -694 246 -1529 -243 -2135 -125 -155 -325 -330 -501 -439 -919 -571 -2127
-303 -2725 604 -384 583 -432 1341 -123 1970 111 225 230 390 408 560 440 424
1021 620 1622 550z"/>
<path d="M2262 4434 c-658 -80 -1235 -495 -1521 -1094 -252 -528 -253 -1151
-2 -1675 26 -55 54 -105 62 -112 8 -7 89 -38 179 -69 91 -32 181 -67 200 -79
19 -12 94 -51 166 -87 l131 -65 144 99 c96 65 153 98 172 98 15 0 53 -11 85
-24 31 -13 91 -34 132 -46 41 -12 127 -46 190 -77 63 -31 123 -60 133 -65 21
-10 91 33 190 117 47 40 77 58 95 58 32 0 269 -84 327 -115 22 -12 62 -37 89
-55 76 -52 91 -52 139 -6 23 22 74 62 112 88 39 27 84 62 101 79 42 41 110 89
157 111 45 21 68 13 124 -43 34 -33 189 -132 209 -132 5 0 35 22 65 48 61 54
228 162 251 162 20 0 107 186 157 335 133 398 133 831 0 1230 -111 334 -323
650 -583 867 -59 49 -59 49 -70 26 -17 -34 -63 -35 -126 -3 -99 50 -130 113
-69 139 l32 13 -85 46 c-370 203 -774 281 -1186 231z m597 -113 c45 -21 59
-44 42 -65 -19 -22 -59 -20 -111 7 -56 28 -72 53 -46 72 21 16 64 11 115 -14z
m286 -187 c177 -38 371 -141 489 -260 171 -173 144 -340 -62 -383 -274 -57
-729 147 -847 379 -75 146 -1 258 182 279 79 10 140 6 238 -15z m-825 -189
c99 -21 161 -49 205 -95 85 -88 17 -170 -140 -170 -64 0 -198 34 -241 60 -100
62 -123 149 -50 187 64 34 127 39 226 18z m1626 -441 c76 -36 133 -158 86
-183 -53 -28 -172 77 -172 152 0 46 30 57 86 31z m-1143 -9 c52 -22 90 -71 83
-109 -12 -64 -81 -84 -161 -47 -76 35 -104 95 -65 144 17 22 30 27 65 27 23 0
58 -7 78 -15z m-1418 -284 c46 -16 56 -17 66 -5 24 29 36 15 43 -47 3 -34 6
-84 6 -110 0 -41 -3 -49 -19 -49 -13 0 -24 16 -39 58 -30 80 -76 123 -139 129
-42 4 -53 1 -80 -21 -35 -29 -45 -64 -31 -112 11 -41 42 -64 142 -104 147 -58
186 -99 186 -195 0 -61 -21 -112 -59 -143 -67 -54 -189 -69 -271 -31 -40 18
-46 18 -56 5 -9 -13 -42 -23 -45 -13 0 1 -3 50 -6 110 -5 100 -4 107 13 106
13 0 29 -21 52 -69 42 -89 75 -113 159 -118 58 -4 64 -2 93 26 25 26 30 38 30
80 0 73 -27 100 -148 151 -122 52 -137 62 -163 113 -45 88 -5 198 85 239 53
24 113 24 181 0z m1195 -278 l115 -298 43 -20 c76 -35 56 -45 -93 -45 -109 0
-135 3 -135 14 0 15 21 26 50 26 32 0 33 18 4 101 l-29 79 -116 0 -115 0 -23
-70 c-13 -38 -21 -77 -18 -85 4 -8 27 -20 52 -26 26 -7 45 -17 45 -25 0 -11
-25 -14 -125 -14 -98 0 -125 3 -125 13 0 8 18 21 39 29 47 19 56 34 141 253
34 88 80 206 102 263 29 74 44 102 57 102 13 0 43 -67 131 -297z m638 273 c31
-16 35 -16 51 -2 40 36 51 7 51 -130 0 -76 -2 -84 -19 -84 -14 0 -24 13 -35
48 -46 137 -139 187 -246 132 -124 -63 -161 -327 -67 -467 84 -125 252 -126
329 -3 19 31 35 47 44 43 18 -7 18 -6 -5 -52 -23 -44 -81 -98 -127 -117 -55
-23 -170 -18 -229 10 -148 68 -214 270 -148 451 25 70 114 158 179 179 62 20
176 16 222 -8z m-1258 3 c116 -25 169 -128 121 -235 -33 -73 -101 -111 -218
-121 l-74 -6 3 -110 c3 -118 4 -120 61 -132 15 -3 27 -12 27 -20 0 -13 -23
-15 -140 -15 -114 0 -140 3 -140 14 0 8 14 17 33 21 58 13 57 6 57 286 0 283
-1 289 -61 289 -22 0 -29 5 -29 20 0 19 7 20 155 20 84 0 177 -5 205 -11z
m1932 -36 c8 -103 -15 -148 -42 -83 -7 17 -28 44 -47 60 -32 29 -37 30 -128
30 l-95 0 3 -127 2 -128 35 -3 c76 -8 140 35 140 93 0 8 9 15 20 15 19 0 20
-7 20 -125 0 -115 -2 -125 -18 -125 -13 0 -22 12 -30 39 -16 53 -31 62 -104
64 l-63 2 0 -123 c0 -153 -1 -152 131 -152 109 0 128 11 170 95 46 95 65 62
48 -82 l-7 -53 -268 0 c-229 0 -269 2 -269 15 0 8 14 17 35 21 66 12 65 9 65
280 0 147 -4 253 -10 264 -6 11 -26 22 -45 26 -37 7 -50 18 -40 34 4 6 98 10
250 10 l243 0 4 -47z m-1995 -1248 c54 -74 101 -134 106 -135 11 0 9 184 -3
214 -5 14 -20 28 -35 32 -49 12 -24 24 50 24 73 0 99 -12 51 -24 -32 -8 -36
-28 -36 -198 0 -112 -3 -148 -12 -148 -7 0 -61 66 -120 146 l-108 145 0 -126
0 -127 30 -11 c49 -19 35 -27 -45 -27 -43 0 -75 4 -75 10 0 6 6 10 14 10 8 0
22 7 30 16 13 12 16 41 16 145 0 116 -2 131 -20 149 -11 11 -27 20 -35 20 -8
0 -15 5 -15 10 0 6 24 10 54 10 l55 0 98 -135z m503 90 c0 -25 -4 -45 -10 -45
-5 0 -10 5 -10 10 0 6 -11 22 -25 35 -19 20 -34 25 -75 25 l-50 0 0 -75 c0
-73 1 -75 24 -75 37 0 57 11 67 36 16 45 29 25 29 -46 0 -74 -10 -88 -32 -42
-10 21 -21 28 -51 30 l-37 3 0 -74 c0 -84 3 -87 74 -87 49 0 79 18 96 60 19
46 31 36 28 -22 l-3 -53 -152 -3 c-88 -1 -153 1 -153 7 0 5 11 12 25 15 l26 7
-3 152 c-3 147 -4 152 -25 162 -13 5 -23 13 -23 17 0 5 63 8 140 8 l140 0 0
-45z m190 35 c0 -5 -6 -10 -14 -10 -8 0 -18 -5 -22 -11 -6 -11 55 -243 63
-236 2 2 23 62 47 133 26 79 48 129 56 129 8 0 31 -54 60 -140 31 -93 48 -133
52 -120 26 88 58 212 58 222 0 7 -11 15 -25 19 -46 12 -26 24 40 24 63 0 85
-12 46 -25 -22 -7 -33 -33 -89 -215 -24 -79 -43 -126 -52 -128 -11 -1 -27 36
-59 135 -34 108 -46 134 -52 118 -5 -11 -27 -73 -50 -137 -23 -66 -47 -118
-54 -118 -7 0 -29 59 -54 153 -44 158 -61 197 -86 197 -8 0 -15 5 -15 10 0 6
32 10 75 10 43 0 75 -4 75 -10z m630 -3 c62 -32 64 -103 3 -140 l-37 -21 32
-8 c61 -16 90 -87 56 -137 -27 -38 -74 -51 -184 -51 -96 0 -129 11 -75 24 l26
7 -3 152 c-3 147 -4 152 -25 162 -13 5 -23 13 -23 17 0 13 203 9 230 -5z"/>
<path d="M2770 4310 c0 -15 67 -42 94 -38 19 3 18 5 -9 19 -42 23 -85 32 -85
19z"/>
<path d="M2854 4101 c-75 -19 -132 -91 -118 -149 37 -154 247 -315 519 -398
76 -23 109 -27 210 -28 127 -1 173 13 218 62 64 71 -3 212 -156 328 -75 57
-257 146 -347 169 -71 19 -276 29 -326 16z"/>
<path d="M2150 3909 c-103 -31 -66 -104 81 -160 107 -41 265 -34 290 13 31 59
-117 142 -270 153 -37 2 -82 0 -101 -6z"/>
<path d="M3906 3458 c15 -48 82 -113 100 -96 15 15 -37 83 -79 105 -28 14 -29
14 -21 -9z"/>
<path d="M2684 3455 c-9 -23 23 -65 63 -81 43 -19 82 -15 97 9 9 15 5 24 -26
53 -32 28 -45 34 -83 34 -31 0 -47 -5 -51 -15z"/>
<path d="M2371 2960 c-22 -61 -41 -115 -41 -120 0 -5 40 -9 90 -9 57 1 90 5
90 12 0 17 -84 227 -91 227 -4 0 -25 -50 -48 -110z"/>
<path d="M1790 3036 c0 -145 0 -146 23 -146 45 1 113 22 134 42 32 30 47 103
31 157 -18 60 -52 84 -128 89 l-60 4 0 -146z"/>
<path d="M3100 1970 l0 -70 33 0 c38 0 50 7 66 38 28 53 -8 102 -75 102 -23 0
-24 -2 -24 -70z"/>
<path d="M3113 1873 c-9 -3 -13 -29 -13 -79 0 -70 1 -74 25 -80 36 -9 73 3 86
27 18 35 15 87 -7 108 -20 19 -70 32 -91 24z"/>
<path d="M3510 4100 c0 -15 78 -68 111 -75 39 -9 47 0 23 26 -34 39 -134 75
-134 49z"/>
<path d="M881 1413 c277 -413 711 -709 1200 -817 580 -128 1208 23 1659 399
131 109 300 294 365 400 l19 30 -25 -22 c-34 -30 -187 -133 -197 -133 -17 0
-145 73 -221 125 l-77 53 -85 -45 c-46 -26 -135 -85 -197 -132 -147 -111 -162
-121 -190 -121 -28 0 -92 31 -152 75 -62 45 -95 61 -197 94 -147 48 -151 48
-212 -4 -54 -46 -168 -117 -208 -129 -41 -13 -112 5 -161 40 -88 64 -165 95
-275 110 -81 12 -112 12 -152 3 -53 -13 -225 -94 -225 -107 0 -4 -15 -16 -34
-26 -36 -19 -87 -16 -116 9 -8 7 -33 22 -55 33 -22 11 -81 42 -130 68 -113 62
-321 159 -358 168 -28 7 -27 6 24 -71z"/>
</g>
</svg>
